PathFileType	4	(X/Y/Z)	C:\Users\ebm\Documents\Erivelton\Erivelton\propulsion3.trc
DataRate	CameraRate	NumFrames	NumMarkers	Units	OrigDataRate	OrigDataStartFrame	OrigNumFrames
150.00	150.00	       10	28	mm	150.00	499	       997
Frame#	Time	IJ			PX			C7			T8			RAC			RAS			RPS			RAI			RPI			RLE			RME			RRS			RUS			R3M			R5M			LAC			LAS			LPS			LAI			LPI			LLE			LME			LRS			LUS			L3M			L5M			RW			LW			V_mid_elbow_r			V_mid_elbow_l			V_mid_wrist_r			V_mid_wrist_l			V_mid_trunk_low			V_mid_trunk_upp			
		X1	Y1	Z1	X2	Y2	Z2	X3	Y3	Z3	X4	Y4	Z4	X5	Y5	Z5	X6	Y6	Z6	X7	Y7	Z7	X8	Y8	Z8	X9	Y9	Z9	X10	Y10	Z10	X11	Y11	Z11	X12	Y12	Z12	X13	Y13	Z13	X14	Y14	Z14	X15	Y15	Z15	X16	Y16	Z16	X17	Y17	Z17	X18	Y18	Z18	X19	Y19	Z19	X20	Y20	Z20	X21	Y21	Z21	X22	Y22	Z22	X23	Y23	Z23	X24	Y24	Z24	X25	Y25	Z25	X26	Y26	Z26	X27	Y27	Z27	X28	Y28	Z28	

499	3.320	1073.57727	1021.36224	-114.48520	1074.77246	843.14966	-106.29812	955.07184	1127.62512	-118.34597	855.83740	943.52893	-110.27859	1007.30676	1078.00696	74.30891	1017.37250	918.81897	157.17061	977.35840	946.35303	179.31822	996.80011	853.05603	200.64154	960.50232	881.89880	220.99748	927.86200	811.48096	264.48563	897.70068	766.36981	198.89618	1156.89209	661.27435	232.52284	1126.23328	650.58429	280.49448	1211.85254	604.24213	286.87338	1176.29688	592.27057	298.22058	973.35907	1053.81665	-310.97711	969.90747	910.26288	-406.62231	921.53326	914.78430	-404.45227	968.34729	843.48260	-452.75375	913.33215	846.21594	-452.64456	932.30499	782.57941	-489.91241	899.92194	739.32898	-425.93149	1138.32666	616.31305	-446.34042	1116.50549	591.84088	-513.02496	1201.71655	561.02594	-505.48535	1164.74365	541.18408	-518.83234	995.91693	305.40137	208.98279	992.57330	302.74689	-418.78943	
500	3.327	1082.21021	1021.47223	-114.48784	1083.64453	843.49786	-105.55305	963.68353	1127.79077	-118.31023	864.54236	943.51733	-110.17426	1014.99255	1078.99854	74.11500	1022.10638	920.38470	158.24759	982.27490	948.63739	179.53656	999.76978	855.22607	201.66853	963.56934	884.79291	221.52551	929.37646	815.25781	264.83203	899.23615	770.18933	199.36336	1157.00269	663.00989	234.18175	1126.06091	652.38336	281.99045	1211.79578	605.99780	288.46729	1176.04883	593.89417	299.60690	980.97729	1054.77246	-310.39096	974.73450	912.39673	-406.51132	926.40509	917.58716	-403.91693	971.44183	845.82037	-453.21167	916.48999	849.47089	-452.39508	933.99579	785.73499	-490.30139	901.62427	742.63184	-426.15176	1138.67908	617.79065	-448.14307	1116.37744	593.30273	-514.61749	1201.57129	562.17615	-507.39651	1164.56323	542.38354	-520.30652	1004.85229	305.35098	209.34059	1001.43573	302.82303	-418.82416	
501	3.333	1090.89819	1021.66168	-114.35267	1092.55054	843.78326	-105.43133	972.33118	1127.92163	-118.28173	873.32141	943.42462	-110.04353	1022.66510	1079.95251	73.86668	1026.78674	922.01367	159.12148	987.14819	951.09912	179.66310	1002.70544	857.48962	202.57005	966.68500	887.70129	221.72215	930.98871	819.14789	265.14215	900.70593	774.22693	199.42264	1156.91113	664.63562	235.94980	1125.69226	653.94720	283.40750	1211.42737	607.60724	289.99756	1175.51221	595.19568	301.35770	988.51294	1055.77441	-309.82437	979.44000	914.43542	-406.63562	931.33453	920.50391	-403.28754	974.47089	848.23303	-453.49768	919.57800	852.89386	-451.96344	935.69995	788.99609	-490.51367	903.21558	746.05231	-426.11957	1138.82849	619.18042	-449.79013	1116.06274	594.68457	-516.09973	1201.01025	563.52411	-509.08759	1164.09253	543.41638	-521.87952	1013.75549	305.22928	209.32520	1010.47321	302.87503	-418.86615	
502	3.340	1099.53564	1021.80347	-114.31308	1101.45166	844.11163	-105.38565	980.95837	1128.02075	-118.22472	882.06366	943.42822	-109.89886	1030.31799	1080.92676	73.61897	1031.51086	923.63757	160.05887	992.09589	953.54114	179.83919	1005.55273	859.76312	203.35152	969.79297	890.79205	221.44760	932.51917	822.97430	265.23264	902.11847	778.38837	199.13676	1156.67456	665.87482	237.39409	1125.07263	655.46362	284.93738	1210.76636	608.93280	291.51462	1174.70129	596.28815	302.64319	996.05829	1056.75342	-309.19739	984.28217	916.53748	-406.53577	936.19568	923.48669	-402.52890	977.42096	850.72931	-453.62491	922.75787	856.25653	-451.37424	937.34888	792.30139	-490.52563	904.71655	749.12756	-425.97202	1138.76306	620.49719	-451.35123	1115.54700	595.97131	-517.12878	1200.50354	564.21545	-510.60892	1163.32214	544.52637	-523.11951	1022.64270	305.17233	209.28218	1019.40222	302.87903	-418.81729	
503	3.347	1108.42761	1022.06995	-114.88695	1110.50073	844.42053	-105.97842	989.61023	1128.14465	-118.13032	890.84619	943.38043	-109.72160	1037.97876	1081.84924	73.36393	1036.33447	925.25525	160.96590	997.03241	956.02380	179.93373	1008.46643	862.07642	203.99750	972.66705	893.86877	221.27859	934.15875	826.81927	265.13623	903.66046	782.40222	199.03070	1156.34155	667.07440	238.76819	1124.41345	656.71021	286.08212	1209.95801	609.99634	293.02557	1173.53674	597.17163	303.98343	1003.64325	1057.77734	-308.54584	989.01080	918.65131	-406.53503	941.15485	926.41528	-401.60999	980.45441	853.16345	-453.64612	925.89069	859.71844	-450.60349	939.01172	795.64056	-490.41519	906.57892	752.74048	-425.48788	1138.58997	621.77570	-452.71939	1114.89844	597.23615	-518.26270	1199.72876	565.00879	-512.04840	1162.37842	545.46313	-524.49194	1031.52393	304.86081	208.96938	1028.28296	302.97107	-418.94635	
504	3.353	1117.08936	1022.17273	-114.62115	1119.25488	844.58722	-106.07317	998.36206	1128.24109	-118.07634	899.53406	943.39288	-109.56294	1045.65161	1082.78821	73.20215	1041.02966	926.90985	161.80467	1001.47516	958.37201	179.50479	1011.35986	864.35956	204.46701	975.95148	896.88782	221.21796	935.88647	830.75995	264.79993	904.97699	786.79590	198.64793	1155.62354	667.77429	240.18390	1123.58862	657.86932	287.20502	1208.87830	610.62897	294.36169	1172.21118	597.87744	305.17969	1011.16046	1058.75122	-307.88675	993.83527	920.76495	-406.25021	946.14532	929.34985	-400.64401	983.32623	855.74481	-453.54623	929.01709	863.22809	-449.77805	940.65228	799.03302	-490.13110	908.18524	756.34381	-424.90771	1138.30286	622.97809	-453.92786	1114.07910	598.48560	-519.28369	1198.74438	565.73962	-513.31848	1161.19421	546.45135	-525.68579	1040.47961	304.75610	208.90622	1037.35986	302.87656	-418.92441	
505	3.360	1125.68860	1022.20697	-113.91221	1128.31958	844.94196	-105.87482	1007.03156	1128.38733	-118.00653	908.27350	943.35339	-109.42529	1053.17029	1083.65125	73.01335	1045.40491	928.58911	162.06516	1006.35663	960.73920	179.33182	1014.39258	866.75189	205.05025	979.43060	899.83856	221.07233	937.70642	834.60419	264.44852	906.82288	790.62006	197.96680	1155.19226	668.69489	241.14867	1122.50330	658.70520	288.21005	1207.51904	611.09705	295.69135	1170.62305	598.31622	306.22479	1018.68036	1059.68774	-307.23380	998.64453	922.96002	-405.81198	951.09705	932.33362	-399.57443	986.38989	858.06274	-452.78436	933.06976	868.05646	-449.09372	942.29749	802.42114	-489.64917	909.79626	760.03833	-424.15884	1137.86304	624.10333	-455.03311	1113.12561	599.82220	-520.47449	1197.63318	566.38586	-514.43964	1159.99072	547.25165	-526.67401	1049.54211	304.66507	208.94597	1046.25879	302.89990	-418.94592	
506	3.367	1134.60022	1022.39691	-113.84542	1136.96704	845.00775	-105.94279	1015.80542	1128.46619	-117.91225	916.97955	943.38452	-109.28122	1060.80322	1084.43848	72.81715	1050.15686	930.24542	162.66971	1011.30536	963.12140	179.19470	1017.27173	869.11194	205.37729	982.40607	902.93481	220.54855	939.31885	838.62445	263.93936	908.42291	795.05737	197.08017	1154.44824	669.28992	242.23531	1121.36328	659.40472	288.78552	1205.97852	611.34833	296.76764	1168.75476	598.50763	307.15384	1026.26050	1060.58496	-306.57983	1003.42987	925.11694	-405.54913	956.07788	935.26636	-398.39240	989.25946	860.61096	-452.49963	936.16998	871.49323	-448.08899	943.95367	805.80194	-489.02924	911.38080	763.74115	-423.27301	1137.30383	625.20697	-455.99768	1112.01770	600.81000	-520.88373	1196.36816	566.93060	-515.62323	1158.57312	548.13867	-527.37128	1058.62708	304.45923	209.07120	1055.34033	302.80249	-418.88336	
507	3.373	1143.17676	1022.48444	-113.72154	1145.87451	845.26556	-105.77222	1024.59399	1128.51221	-117.81986	925.71118	943.32941	-109.19028	1068.43237	1085.09167	72.66259	1054.86646	931.89789	163.24606	1016.37598	965.46899	178.98178	1020.37927	871.47546	205.65289	985.84833	905.79449	220.23695	941.55713	842.15167	263.55682	910.30475	799.09497	196.33794	1153.63391	669.61578	243.01889	1120.03625	659.92694	289.50012	1204.15503	611.44824	298.07446	1166.69885	598.63495	307.96439	1033.77844	1061.43787	-305.90100	1007.86298	927.30481	-404.98276	961.02350	938.12659	-397.15579	992.19336	863.30725	-452.13281	939.20898	874.89893	-446.92773	945.58044	809.20697	-488.28232	913.06476	767.46393	-422.17242	1136.70728	626.27002	-456.69659	1110.85266	601.97809	-521.41058	1195.01270	567.59424	-516.44867	1157.14978	548.84332	-528.00128	1067.75476	304.22473	209.07962	1064.33301	302.80817	-418.97531	
508	3.380	1151.95276	1022.59528	-113.62541	1154.59290	845.40540	-105.73664	1033.35913	1128.63147	-117.74518	934.45740	943.31842	-109.04965	1075.98914	1085.78650	72.50706	1059.87549	933.62213	164.22252	1021.32886	967.80646	178.73613	1023.46320	873.85437	205.85773	989.49524	908.60345	219.86070	943.56354	845.96069	262.65372	912.08380	803.50616	194.99483	1152.66760	669.77612	243.79153	1118.59497	660.34259	289.99774	1202.17651	611.35626	298.80908	1164.53406	598.54651	308.55643	1041.30713	1062.25208	-305.23999	1012.54382	929.45526	-404.41754	965.98169	940.97577	-395.80652	995.07642	865.94678	-451.63239	942.32465	878.31433	-445.70239	947.25800	812.61639	-487.42184	914.95221	770.98260	-420.95889	1135.41541	626.48511	-456.85159	1109.64319	603.23334	-521.83685	1193.56946	568.16895	-517.11365	1155.63281	549.53607	-528.36230	1076.86145	304.18143	209.06802	1073.43970	302.77393	-419.02701	
